<svg width="35" height="38" viewBox="0 0 35 38" fill="none" xmlns="http://www.w3.org/2000/svg">
<g clip-path="url(#clip0_15_1117)">
<path d="M27.1472 0.789454C26.8409 0.525132 26.3783 0.559176 26.114 0.865496C25.8497 1.17181 25.8837 1.63441 26.1901 1.89874C28.823 4.17068 30.8596 6.94964 32.2383 10.0014C32.4049 10.3702 32.8389 10.5341 33.2075 10.3675C33.5762 10.2009 33.7401 9.76693 33.5735 9.39825C32.1092 6.15702 29.9454 3.20398 27.1472 0.789454Z" fill="#A1AEC6"/>
<path d="M26.0793 4.389C25.8024 4.09396 25.3388 4.07921 25.0438 4.35606C24.7487 4.63292 24.734 5.09653 25.0108 5.39158C26.3623 6.83188 27.464 8.45704 28.2977 10.1989C28.4724 10.5639 28.9098 10.7181 29.2748 10.5434C29.6397 10.3688 29.794 9.93131 29.6193 9.56641C28.7218 7.69118 27.5354 5.94079 26.0793 4.389Z" fill="#A1AEC6"/>
<path fill-rule="evenodd" clip-rule="evenodd" d="M24.5937 17.6907L24.57 17.6026L20.1121 7.11421C19.4527 5.56266 17.6906 4.80283 16.1097 5.38825C15.3826 5.65747 14.8153 6.1649 14.4613 6.78814C13.6565 5.42786 11.9497 4.86942 10.4855 5.52005C8.88675 6.23041 8.18192 8.10596 8.90155 9.68788C8.35126 9.64532 7.78324 9.7478 7.25586 10.0134C5.68323 10.8052 5.07358 12.7384 5.90743 14.2892L7.42611 17.1136C6.85436 17.1222 6.27847 17.2911 5.76869 17.6341C4.39816 18.5561 4.00253 20.4023 4.89243 21.804C6.71412 24.6735 10.8657 31.2101 11.9197 32.8438C12.6569 33.9863 14.1045 35.8604 16.452 36.8474C18.8876 37.8714 22.0201 37.8306 25.841 35.6247C28.8042 33.9139 30.0851 31.3896 30.6983 29.0148C31.0001 27.8459 31.1443 26.7001 31.2519 25.7161C31.2714 25.5371 31.2896 25.3659 31.3071 25.2024C31.39 24.4219 31.455 23.8112 31.5666 23.3105C31.8441 22.0665 32.9027 20.3722 33.9327 18.9806C34.5355 18.1662 34.7709 17.1265 34.5476 16.1743C34.3118 15.1687 33.5523 14.2824 32.3376 14.0494C31.1817 13.8276 29.672 13.8178 28.2332 14.6486C26.4671 15.6682 26.0554 17.2422 25.817 18.2062C25.6975 18.6892 25.6434 18.8989 25.584 19.0274C25.4599 19.0382 25.2787 18.992 25.0023 18.5746C24.8659 18.3687 24.7597 18.1416 24.6863 17.9556C24.6507 17.8654 24.6254 17.7916 24.6101 17.744C24.6063 17.7322 24.6031 17.7221 24.6006 17.7139L24.595 17.6951L24.5937 17.6907ZM16.5916 6.68994C15.7169 7.01383 15.2549 7.95296 15.5025 8.82868C15.5211 8.89407 15.5435 8.95908 15.57 9.02347L19.5294 18.6325C19.5876 18.7737 19.5198 18.9354 19.3782 18.993C19.2453 19.0468 19.0934 18.9899 19.0286 18.862L13.3231 7.59784C12.9016 6.76556 11.9017 6.4097 11.049 6.78853C10.1416 7.19175 9.75035 8.2679 10.187 9.15981L15.9877 21.0062C16.0659 21.1661 16.007 21.3593 15.8529 21.4484C15.689 21.5429 15.4795 21.485 15.3876 21.3197L10.184 11.9618C10.075 11.7657 9.9335 11.5988 9.76978 11.4641C9.25242 11.038 8.51351 10.9342 7.88009 11.2531C7.00524 11.6936 6.66608 12.7691 7.12996 13.6318L13.0277 24.6004C13.087 24.7108 13.0479 24.8484 12.9394 24.911C12.8338 24.972 12.6992 24.9408 12.6311 24.8397L8.85814 19.2379C8.70599 19.0119 8.50819 18.8351 8.28525 18.7114C7.75455 18.417 7.08157 18.4237 6.5435 18.7857C5.79357 19.2902 5.57986 20.2971 6.06429 21.0601C7.88804 23.9328 12.0356 30.4631 13.0861 32.0912C14.4439 34.1957 18.1184 38.4805 25.1469 34.4226C29.1816 32.0932 29.6087 28.0585 29.9236 25.083C30.0064 24.3018 30.0813 23.5935 30.2119 23.0083C30.5602 21.4465 31.7909 19.5412 32.817 18.1547C33.5712 17.1359 33.321 15.6515 32.0761 15.4126C31.1176 15.2287 29.9802 15.2427 28.9272 15.8506C27.6427 16.5923 27.3688 17.7073 27.1372 18.6503C26.9236 19.5199 26.7459 20.2432 25.8445 20.3924C23.9658 20.7036 23.2546 18.0563 23.2546 18.0563L18.8346 7.65717C18.4651 6.78767 17.4776 6.36187 16.5916 6.68994Z" fill="#A1AEC6"/>
<path d="M5.45299 30.7289C5.16854 31.0166 4.7047 31.0192 4.41697 30.7348C2.90366 29.2387 1.65246 27.5341 0.685221 25.6938C0.496977 25.3357 0.634705 24.8928 0.992842 24.7045C1.35099 24.5163 1.79391 24.654 1.98215 25.0121C2.88065 26.7216 4.04247 28.3042 5.44706 29.6928C5.73478 29.9773 5.73744 30.4412 5.45299 30.7289Z" fill="#A1AEC6"/>
</g>
<defs>
<clipPath id="clip0_15_1117">
<rect width="34.7015" height="37.7861" fill="white"/>
</clipPath>
</defs>
</svg>
