<svg width="123" height="122" viewBox="0 0 123 122" fill="none" xmlns="http://www.w3.org/2000/svg">
<path d="M121.704 71.2796L123 64.3876L113.876 62.6944L113.678 63.7488L121.896 65.2738L120.997 70.0571L112.779 68.5321L112.58 69.5864L121.704 71.2796Z" fill="#A1AEC6"/>
<path d="M120.309 78.0844L121.234 75.663L112.556 72.3909L112.173 73.3937L115.164 74.5215L114.622 75.9402C113.791 78.117 113.841 79.7171 116.119 80.5757C118.383 81.4297 119.478 80.2613 120.309 78.0844ZM115.479 76.2773L116.026 74.8464L119.989 76.3409L119.443 77.7718C118.882 79.2393 118.2 80.2134 116.502 79.5729C114.778 78.9231 114.919 77.7448 115.479 76.2773Z" fill="#A1AEC6"/>
<path d="M105.547 88.0963L113.323 93.1321L114.509 91.324L109.518 82.5953L109.683 82.3432L110.24 82.9071L117.111 87.3571L117.694 86.4695L109.918 81.4338L108.732 83.2419L113.73 91.9596L113.565 92.2117L113.008 91.6478L106.137 87.1978L105.547 88.0963Z" fill="#A1AEC6"/>
<path d="M104.354 90.9668L102.234 93.1513C100.671 94.7614 100.12 96.1775 101.466 97.4669C102.66 98.6109 103.853 98.2101 104.859 97.2113L105.087 97.4293C104.467 98.162 104.244 99.1836 105.21 100.11C106.528 101.372 107.755 100.748 109.326 99.1289L111.035 97.3681L104.354 90.9668ZM107.415 95.389L109.623 97.5046L108.636 98.5216C107.585 99.6044 106.87 100.209 105.837 99.2197C104.889 98.3117 105.377 97.4888 106.428 96.406L107.415 95.389ZM104.268 92.3745L106.751 94.7535L105.353 96.1941C104.256 97.324 103.324 97.7571 102.348 96.8219C101.296 95.814 101.773 94.9451 102.87 93.8152L104.268 92.3745Z" fill="#A1AEC6"/>
<path d="M97.9316 98.165L93.3289 101.595L93.8819 102.327L97.6209 99.541L99.5799 102.136L96.3675 104.53L96.9204 105.262L100.133 102.869L102.084 105.453L98.3449 108.24L98.8979 108.972L103.501 105.542L97.9316 98.165Z" fill="#A1AEC6"/>
<path d="M88.9767 115.195L95.7383 111.931L95.3356 111.107L92.4225 112.513L88.7691 105.042L87.8099 105.505L91.4633 112.976L88.5739 114.371L88.9767 115.195Z" fill="#A1AEC6"/>
<path d="M69.2948 121.172L76.3074 120.39L75.272 111.226L74.1992 111.346L75.1318 119.6L70.2648 120.143L69.3322 111.889L68.2594 112.008L69.2948 121.172Z" fill="#A1AEC6"/>
<path d="M62.2038 121.83L64.8049 122L65.4133 112.798L64.336 112.728L64.1263 115.899L62.6024 115.8C60.264 115.647 58.739 116.164 58.5793 118.579C58.4206 120.98 59.8654 121.678 62.2038 121.83ZM62.5289 116.713L64.0659 116.813L63.7881 121.016L62.2511 120.916C60.6746 120.813 59.5375 120.45 59.6566 118.649C59.7774 116.822 60.9524 116.61 62.5289 116.713Z" fill="#A1AEC6"/>
<path d="M48.2803 110.744L45.7171 119.607L47.8049 120.203L54.7385 112.901L55.0296 112.984L54.6506 113.679L52.3855 121.511L53.4104 121.803L55.9736 112.94L53.8858 112.344L46.9648 119.65L46.6738 119.567L47.0528 118.872L49.3179 111.04L48.2803 110.744Z" fill="#A1AEC6"/>
<path d="M45.1968 110.464L42.4747 109.087C40.4683 108.073 38.9441 107.962 38.0961 109.618C37.3437 111.087 38.0782 112.104 39.3334 112.768L39.1901 113.048C38.3037 112.673 37.255 112.759 36.6459 113.948C35.8158 115.569 36.7743 116.552 38.7924 117.573L40.9865 118.682L45.1968 110.464ZM41.8339 114.664L40.4424 117.38L39.1752 116.739C37.8259 116.057 37.0347 115.554 37.6856 114.283C38.2828 113.117 39.2174 113.341 40.5667 114.023L41.8339 114.664ZM43.8166 110.793L42.2519 113.848L40.4568 112.94C39.0488 112.228 38.3595 111.468 38.9746 110.268C39.6375 108.974 40.6135 109.174 42.0214 109.886L43.8166 110.793Z" fill="#A1AEC6"/>
<path d="M36.3794 106.459L31.7392 103.079L31.1944 103.818L34.9639 106.563L33.0336 109.18L29.795 106.821L29.2501 107.559L32.4887 109.918L30.5662 112.524L26.7967 109.779L26.2519 110.517L30.8921 113.896L36.3794 106.459Z" fill="#A1AEC6"/>
<path d="M17.4038 102.926L22.5228 108.396L23.1977 107.772L20.9923 105.416L27.1146 99.7596L26.3884 98.9837L20.2661 104.64L18.0787 102.302L17.4038 102.926Z" fill="#A1AEC6"/>
<path d="M5.91712 86.0671L8.73866 92.4935L17.2461 88.8062L16.8144 87.8231L9.15172 91.1442L7.19348 86.6842L14.8562 83.363L14.4246 82.3799L5.91712 86.0671Z" fill="#A1AEC6"/>
<path d="M3.25588 79.7401L3.86092 82.2593L12.8891 80.1189L12.6385 79.0756L9.52669 79.8134L9.17222 78.3374C8.62829 76.0727 7.68111 74.7776 5.31201 75.3393C2.95572 75.898 2.71195 77.4754 3.25588 79.7401ZM8.27275 78.5372L8.63028 80.0259L4.50676 81.0035L4.14924 79.5149C3.78254 77.9881 3.79537 76.8016 5.56258 76.3826C7.35542 75.9576 7.90605 77.0104 8.27275 78.5372Z" fill="#A1AEC6"/>
<path d="M9.79492 63.1974L0.514986 63.3754L0.556908 65.5333L9.62353 69.9647L9.62937 70.2655L8.84945 70.1103L0.648883 70.2676L0.669463 71.3269L9.9494 71.149L9.90748 68.9911L0.841111 64.5728L0.835267 64.272L1.61519 64.4271L9.81575 64.2699L9.79492 63.1974Z" fill="#A1AEC6"/>
<path d="M9.14889 60.1538L9.66367 57.1625C10.0431 54.9577 9.69654 53.4789 7.85379 53.1659C6.21867 52.8881 5.45907 53.887 5.19348 55.2751L4.88202 55.2222C4.97912 54.27 4.58496 53.3006 3.26129 53.0757C1.45746 52.7693 0.796573 53.9708 0.414928 56.1885L0 58.5996L9.14889 60.1538ZM4.11402 58.2103L1.09035 57.6966L1.32999 56.3041C1.58515 54.8214 1.83353 53.9214 3.24804 54.1617C4.54576 54.3821 4.60883 55.335 4.35366 56.8178L4.11402 58.2103ZM8.42244 58.9422L5.02242 58.3646L5.36191 56.3919C5.62818 54.8447 6.15351 53.9652 7.49016 54.1923C8.93062 54.437 9.02819 55.4223 8.76192 56.9695L8.42244 58.9422Z" fill="#A1AEC6"/>
<path d="M10.3956 50.4287L12.2948 45.0329L11.4249 44.7306L9.88206 49.1139L6.80005 48.0431L8.1256 44.2771L7.25568 43.9749L5.93013 47.7408L2.86055 46.6742L4.4034 42.2909L3.53348 41.9887L1.63425 47.3845L10.3956 50.4287Z" fill="#A1AEC6"/>
<path d="M8.25131 31.3566L4.47551 37.8151L5.27241 38.275L6.89911 35.4925L14.1282 39.6645L14.6638 38.7483L7.43473 34.5763L9.04821 31.8165L8.25131 31.3566Z" fill="#A1AEC6"/>
<path d="M20.9685 15.6564L15.6127 20.2216L21.6563 27.2207L22.4756 26.5223L17.0321 20.2181L20.7492 17.0498L26.1927 23.3539L27.0121 22.6555L20.9685 15.6564Z" fill="#A1AEC6"/>
<path d="M26.2406 11.2578L23.9962 12.5752L28.7171 20.5151L29.6465 19.9695L28.0194 17.2328L29.3343 16.461C31.3519 15.2768 32.3181 13.9956 31.0793 11.9121C29.8472 9.83986 28.2583 10.0736 26.2406 11.2578ZM28.8769 15.666L27.5506 16.4444L25.3944 12.818L26.7207 12.0395C28.0809 11.2412 29.2257 10.9035 30.1498 12.4577C31.0873 14.0344 30.2371 14.8676 28.8769 15.666Z" fill="#A1AEC6"/>
<path d="M44.104 12.5398L41.2055 3.77919L39.1419 4.45317L37.5433 14.3659L37.2556 14.4598L37.1756 13.6735L34.6143 5.93185L33.6012 6.26272L36.4997 15.0234L38.5633 14.3494L40.1495 4.44079L40.4371 4.34684L40.5171 5.13311L43.0784 12.8748L44.104 12.5398Z" fill="#A1AEC6"/>
<path d="M46.8632 11.0094L49.8929 10.6246C52.126 10.3409 53.4482 9.57955 53.2111 7.7371C53.0008 6.10225 51.8173 5.67235 50.4036 5.82556L50.3635 5.51416C51.3085 5.32819 52.1264 4.67044 51.9561 3.34699C51.724 1.54346 50.3744 1.26654 48.1282 1.55185L45.6861 1.86205L46.8632 11.0094ZM47.2629 5.65746L46.8738 2.63428L48.2842 2.45513C49.786 2.26436 50.7249 2.23741 50.9069 3.65168C51.0739 4.94918 50.1751 5.28754 48.6732 5.4783L47.2629 5.65746ZM47.8172 9.96515L47.3797 6.5657L49.3778 6.3119C50.9449 6.11284 51.945 6.35505 52.1169 7.69148C52.3022 9.1317 51.3823 9.51229 49.8152 9.71135L47.8172 9.96515Z" fill="#A1AEC6"/>
<path d="M56.6645 9.34515L62.4136 9.5657L62.4491 8.65074L57.7789 8.47157L57.9048 5.23L61.9173 5.38393L61.9529 4.46897L57.9404 4.31504L58.0659 1.08653L62.7361 1.2657L62.7717 0.350741L57.0227 0.130188L56.6645 9.34515Z" fill="#A1AEC6"/>
<path d="M74.3232 1.67824L66.998 0L66.7909 0.892229L69.9468 1.61525L68.0683 9.70905L69.1075 9.94712L70.9859 1.85332L74.1161 2.57047L74.3232 1.67824Z" fill="#A1AEC6"/>
<path d="M89.4854 7.06345L83.2691 3.74517L78.8763 11.8688L79.8273 12.3764L83.784 5.05942L88.0983 7.36241L84.1416 14.6794L85.0926 15.1871L89.4854 7.06345Z" fill="#A1AEC6"/>
<path d="M95.5508 10.4068L93.506 8.8005L87.7493 16.0344L88.5962 16.6996L90.5804 14.2062L91.7784 15.1473C93.6166 16.5914 95.1674 17.0259 96.678 15.1277C98.1805 13.2397 97.3891 11.8509 95.5508 10.4068ZM92.3603 14.4372L91.152 13.488L93.7813 10.184L94.9896 11.1332C96.2288 12.1067 96.958 13.0464 95.8312 14.4624C94.688 15.8989 93.5996 15.4107 92.3603 14.4372Z" fill="#A1AEC6"/>
<path d="M100.618 27.2621L107.771 21.3859L106.387 19.7225L96.5138 21.8585L96.3208 21.6266L97.0285 21.2659L103.35 16.0731L102.67 15.2566L95.517 21.1328L96.9012 22.7962L106.766 20.6501L106.959 20.882L106.251 21.2427L99.9297 26.4355L100.618 27.2621Z" fill="#A1AEC6"/>
<path d="M103.116 29.3526L104.581 32.0152C105.662 33.9777 106.857 34.9233 108.497 34.0322C109.953 33.2414 109.924 31.9898 109.265 30.7377L109.542 30.5871C110.061 31.3935 110.976 31.9104 112.154 31.2702C113.76 30.3979 113.527 29.0483 112.441 27.0743L111.26 24.9282L103.116 29.3526ZM108.278 27.7708L110.969 26.3086L111.651 27.5481C112.378 28.8679 112.745 29.7267 111.486 30.4107C110.331 31.0383 109.686 30.3301 108.96 29.0103L108.278 27.7708ZM104.443 29.8544L107.469 28.2101L108.435 29.9661C109.193 31.3433 109.331 32.3568 108.141 33.0032C106.859 33.6998 106.167 32.9876 105.409 31.6103L104.443 29.8544Z" fill="#A1AEC6"/>
<path d="M108.143 37.6034L110.042 42.9992L110.912 42.6969L109.369 38.3136L112.451 37.2427L113.777 41.0087L114.647 40.7064L113.321 36.9405L116.391 35.8739L117.933 40.2572L118.803 39.955L116.904 34.5592L108.143 37.6034Z" fill="#A1AEC6"/>
<path d="M121.786 51.2117L120.69 43.8225L119.778 43.956L120.25 47.1395L111.979 48.3508L112.135 49.399L120.406 48.1877L120.874 51.3452L121.786 51.2117Z" fill="#A1AEC6"/>
</svg>
